<?xml version="1.0" encoding="utf-8"?>
<!-- Generator: Adobe Illustrator 16.0.0, SVG Export Plug-In . SVG Version: 6.00 Build 0)  -->
<!DOCTYPE svg PUBLIC "-//W3C//DTD SVG 1.1//EN" "http://www.w3.org/Graphics/SVG/1.1/DTD/svg11.dtd">
<svg version="1.1" xmlns="http://www.w3.org/2000/svg" xmlns:xlink="http://www.w3.org/1999/xlink" x="0px" y="0px" width="128px"
	 height="128px" viewBox="0 0 128 128" enable-background="new 0 0 128 128" xml:space="preserve">
<g id="Layer_1" display="none">
	<linearGradient id="SVGID_1_" gradientUnits="userSpaceOnUse" x1="34.8428" y1="64.4189" x2="93.5938" y2="64.4189">
		<stop  offset="0" style="stop-color:#89C540"/>
		<stop  offset="1" style="stop-color:#41BB95"/>
	</linearGradient>
	<path display="inline" fill="none" stroke="url(#SVGID_1_)" stroke-width="2" stroke-miterlimit="10" d="M43.687,91.48h16.966
		v2.258c0,3.283,2.645,5.913,5.914,5.913h20.13c3.284,0,5.897-2.63,5.897-5.913V68.512c0-0.816-0.608-1.545-1.426-1.545h-4.813
		v-2.064c0-2.526-0.98-4.903-2.763-6.671c-0.862-0.862-1.843-1.561-3.031-2.036v-8.898c0-0.817-0.668-1.426-1.485-1.426h-7.577
		v-3.744c0-3.462-1.352-6.701-3.788-9.152c-2.437-2.436-5.675-3.789-9.137-3.789c-7.131,0-12.925,5.794-12.925,12.926v3.759h-8.379
		c-0.817,0-1.426,0.608-1.426,1.426v36.309C35.843,87.959,39.334,91.48,43.687,91.48z M80.561,59.568
		c0.297,0.223,0.639,0.476,0.922,0.758c1.218,1.219,1.9,2.838,1.9,4.576v2.064h-2.822V59.568z M83.383,69.938v3.773
		c0,0.818,0.669,1.486,1.486,1.486s1.485-0.668,1.485-1.486v-3.773h3.269v23.801c0,1.635-1.277,2.941-2.927,2.941h-20.13
		c-1.635,0-2.942-1.292-2.942-2.941V69.938h3.862v3.773c0,0.818,0.669,1.486,1.486,1.486s1.485-0.668,1.485-1.486v-3.773H83.383z
		 M70.458,66.967v-2.064c0-3.566,2.897-6.463,6.463-6.463c0.223,0,0.371,0.015,0.669,0.045v8.482H70.458L70.458,66.967z
		 M48.619,42.127c0-5.482,4.457-9.954,9.939-9.954c2.66,0,5.17,1.04,7.042,2.912c1.887,1.873,2.928,4.368,2.928,7.042v3.744H48.619
		V42.127z M38.814,48.842h6.834v5.928c0,0.817,0.668,1.486,1.485,1.486s1.486-0.669,1.486-1.486v-5.928h19.908v5.928
		c0,0.817,0.668,1.486,1.485,1.486s1.485-0.669,1.485-1.486v-5.928h6.092v6.656c-0.298-0.016-0.446-0.03-0.669-0.03
		c-5.2,0-9.435,4.234-9.435,9.435v2.064h-5.377c-0.817,0-1.456,0.729-1.456,1.545v19.997H43.687c-2.719,0-4.873-2.184-4.873-4.903
		V48.842z"/>
</g>
<g id="Layer_2" display="none">
	<g display="inline">
		<g>
			<linearGradient id="SVGID_2_" gradientUnits="userSpaceOnUse" x1="41.5439" y1="70.0889" x2="86.5938" y2="70.0889">
				<stop  offset="0" style="stop-color:#89C540"/>
				<stop  offset="1" style="stop-color:#41BB95"/>
			</linearGradient>
			<path fill="url(#SVGID_2_)" d="M41.544,66.963v12.449c0,0,11.938-4.973,22.523-4.973c10.587,0,22.526,4.973,22.526,4.973V66.789
				c0,0-11.392-6.023-22.704-6.023C52.583,60.761,41.544,66.963,41.544,66.963z"/>
			<linearGradient id="SVGID_3_" gradientUnits="userSpaceOnUse" x1="24.2822" y1="64" x2="103.7178" y2="64">
				<stop  offset="0" style="stop-color:#89C540"/>
				<stop  offset="1" style="stop-color:#41BB95"/>
			</linearGradient>
			<path fill="url(#SVGID_3_)" d="M99.237,63.999l4.48-2.408l-4.48-2.482v-1.176c0,0,1.26-6.395-5.907-3.051
				c-0.364,0.195-0.558,0.399-0.64,0.594L63.126,39.081L24.282,61.314l14.67,6.663v-2.162c0,0,12.308-6.911,24.922-6.911
				c12.613,0,25.309,6.717,25.309,6.717v3.777l8.1-4.35c0,5.037,0,15.813,0,17.609h-2.697v6.262l3.59-2.479l3.977,2.479v-6.264
				h-2.914V63.999L99.237,63.999z M97.282,56.845c0,0.15,0,0.567,0,1.178l-2.361-1.312C95.778,56.142,97.282,55.348,97.282,56.845z
				 M96.481,63.753c-1.043,0-1.896-0.849-1.896-1.894s0.854-1.895,1.896-1.895c1.048,0,1.896,0.85,1.896,1.895
				S97.529,63.753,96.481,63.753z"/>
		</g>
	</g>
</g>
<g id="Layer_3">
	<linearGradient id="SVGID_4_" gradientUnits="userSpaceOnUse" x1="32.5098" y1="67.4688" x2="102.2168" y2="67.4688">
		<stop  offset="0" style="stop-color:#41BB95"/>
		<stop  offset="1" style="stop-color:#12A0C0"/>
	</linearGradient>
	<path fill="none" stroke="url(#SVGID_4_)" stroke-width="2" stroke-miterlimit="10" d="M98.979,73.461h-1.047V67.8v-3.76
		c0-1.491-0.742-2.813-1.875-3.614l0,0v-1.283c0-1.861-1.515-3.375-3.375-3.375H91.9l2.989-4.383c1.001-1.47,0.62-3.481-0.849-4.482
		L73.765,33.084c-0.712-0.485-1.57-0.665-2.417-0.504c-0.847,0.161-1.58,0.642-2.065,1.354L51.781,59.614h-4.87l1.175-11.895
		c0.013-0.135,0.1-0.25,0.222-0.296c1.514-0.57,2.826-1.637,3.694-3.002c0.068-0.105,0.197-0.168,0.331-0.156l7.638,0.756
		c0.548,0.053,1.035-0.346,1.089-0.894c0.053-0.546-0.346-1.035-0.894-1.089l-7.639-0.754c-0.887-0.086-1.732,0.322-2.207,1.068
		c-0.638,1.003-1.604,1.789-2.715,2.207c-0.838,0.315-1.414,1.069-1.502,1.964l-1.194,12.09h-1.27l1.857-18.813
		c0.068-0.677,0.671-1.174,1.35-1.106l15.435,1.524c0.548,0.053,1.036-0.345,1.089-0.894c0.055-0.546-0.345-1.034-0.893-1.088
		l-15.436-1.525c-1.771-0.175-3.353,1.123-3.527,2.892l-1.498,15.162h-2.55c-1.861,0-3.375,1.515-3.375,3.375v0.876
		c-1.522,0.7-2.582,2.239-2.582,4.021v3.76v26.43v3.761c0,2.44,1.986,4.425,4.427,4.425h55.569c2.441,0,4.426-1.984,4.426-4.425
		v-3.761v-5.662h1.047c1.235,0,2.238-1.003,2.238-2.237V75.7C101.217,74.466,100.214,73.461,98.979,73.461z M92.682,57.76
		c0.762,0,1.383,0.621,1.383,1.382v0.507c-0.183-0.023-0.368-0.036-0.559-0.036h-4.227l1.265-1.854H92.682L92.682,57.76z
		 M70.928,35.055c0.187-0.272,0.466-0.456,0.789-0.517c0.078-0.015,0.156-0.022,0.232-0.022c0.246,0,0.486,0.072,0.692,0.214
		l20.277,13.816c0.562,0.384,0.707,1.154,0.324,1.715l-6.374,9.353h-1.528l3.126-4.586c0.506-0.742,0.546-1.69,0.106-2.47
		c-0.584-1.035-0.821-2.255-0.667-3.435c0.114-0.877-0.271-1.733-1.008-2.236l-10.511-7.163c-0.736-0.5-1.674-0.546-2.448-0.12
		c-1.042,0.575-2.264,0.8-3.441,0.637c-0.874-0.124-1.759,0.271-2.26,1.003L55.721,59.614h-1.529L70.928,35.055z M71.365,51.966
		c-4.336,0-7.896,3.381-8.187,7.647H58.13l11.753-17.248l0,0c0.067-0.099,0.179-0.157,0.292-0.157c0.014,0,0.031,0.003,0.045,0.003
		c1.603,0.225,3.266-0.082,4.681-0.863c0.111-0.061,0.256-0.053,0.364,0.022l10.512,7.164c0.111,0.073,0.171,0.204,0.154,0.329
		c-0.21,1.605,0.112,3.265,0.907,4.672c0.064,0.114,0.057,0.258-0.02,0.37l-3.889,5.708h-3.377
		C79.265,55.348,75.704,51.966,71.365,51.966z M77.557,59.614H65.176c0.285-3.166,2.952-5.655,6.189-5.655
		C74.605,53.959,77.272,56.448,77.557,59.614z M38.084,59.143c0-0.763,0.62-1.382,1.383-1.382h2.354l0,0l-0.183,1.854h-3.554V59.143
		z M35.501,64.04c0-1.342,1.093-2.435,2.436-2.435h55.569c1.344,0,2.436,1.092,2.436,2.435v2.765h-60.44V64.04z M95.941,93.234
		H47.25c-0.55,0-0.996,0.446-0.996,0.995c0,0.551,0.445,0.996,0.996,0.996h48.692v2.765c0,1.343-1.092,2.435-2.436,2.435H37.937
		c-1.343,0-2.436-1.092-2.436-2.435v-2.765h5.371c0.55,0,0.996-0.445,0.996-0.996c0-0.549-0.446-0.995-0.996-0.995h-5.371V68.796
		h60.44v4.665h-9.471l0,0c-2.982,0-5.566,1.739-6.795,4.257c-0.004,0.009-0.008,0.017-0.012,0.025
		c-0.01,0.021-0.019,0.043-0.029,0.065c-0.147,0.31-0.275,0.631-0.377,0.962c0,0.002,0,0.002,0,0.004
		c-0.221,0.709-0.341,1.46-0.341,2.241l0,0l0,0c0,4.164,3.389,7.552,7.554,7.552l0,0h9.471V93.234L95.941,93.234L95.941,93.234z
		 M99.227,86.33c0,0.135-0.11,0.246-0.248,0.246h-2.043H86.471c-2.108,0-3.945-1.179-4.888-2.911
		c-0.043-0.079-0.086-0.16-0.125-0.241c-0.078-0.162-0.147-0.329-0.209-0.5c-0.221-0.595-0.339-1.238-0.339-1.908
		c0-0.671,0.118-1.314,0.339-1.91c0.062-0.172,0.131-0.338,0.209-0.501c0.039-0.079,0.082-0.159,0.125-0.239
		c0.942-1.732,2.779-2.911,4.888-2.911h10.465h2.043c0.138,0,0.248,0.109,0.248,0.246V86.33z"/>
</g>
</svg>
