<?xml version="1.0" encoding="utf-8"?>
<!-- Generator: Adobe Illustrator 16.0.0, SVG Export Plug-In . SVG Version: 6.00 Build 0)  -->
<!DOCTYPE svg PUBLIC "-//W3C//DTD SVG 1.1//EN" "http://www.w3.org/Graphics/SVG/1.1/DTD/svg11.dtd">
<svg version="1.1" xmlns="http://www.w3.org/2000/svg" xmlns:xlink="http://www.w3.org/1999/xlink" x="0px" y="0px" width="128px"
	 height="128px" viewBox="0 0 128 128" enable-background="new 0 0 128 128" xml:space="preserve">
<g id="Layer_1" display="none">
	<linearGradient id="SVGID_1_" gradientUnits="userSpaceOnUse" x1="34.8428" y1="64.4189" x2="93.5938" y2="64.4189">
		<stop  offset="0" style="stop-color:#89C540"/>
		<stop  offset="1" style="stop-color:#41BB95"/>
	</linearGradient>
	<path display="inline" fill="none" stroke="url(#SVGID_1_)" stroke-width="2" stroke-miterlimit="10" d="M43.687,91.48h16.966
		v2.258c0,3.283,2.645,5.913,5.914,5.913h20.13c3.284,0,5.897-2.63,5.897-5.913V68.512c0-0.816-0.608-1.545-1.426-1.545h-4.813
		v-2.064c0-2.526-0.98-4.903-2.763-6.671c-0.862-0.862-1.843-1.561-3.031-2.036v-8.898c0-0.817-0.668-1.426-1.485-1.426h-7.577
		v-3.744c0-3.462-1.352-6.701-3.788-9.152c-2.437-2.436-5.675-3.789-9.137-3.789c-7.131,0-12.925,5.794-12.925,12.926v3.759h-8.379
		c-0.817,0-1.426,0.608-1.426,1.426v36.309C35.843,87.959,39.334,91.48,43.687,91.48z M80.561,59.568
		c0.297,0.223,0.639,0.476,0.922,0.758c1.218,1.219,1.9,2.838,1.9,4.576v2.064h-2.822V59.568z M83.383,69.938v3.773
		c0,0.818,0.669,1.486,1.486,1.486s1.485-0.668,1.485-1.486v-3.773h3.269v23.801c0,1.635-1.277,2.941-2.927,2.941h-20.13
		c-1.635,0-2.942-1.292-2.942-2.941V69.938h3.862v3.773c0,0.818,0.669,1.486,1.486,1.486s1.485-0.668,1.485-1.486v-3.773H83.383z
		 M70.458,66.967v-2.064c0-3.566,2.897-6.463,6.463-6.463c0.223,0,0.371,0.015,0.669,0.045v8.482H70.458L70.458,66.967z
		 M48.619,42.127c0-5.482,4.457-9.954,9.939-9.954c2.66,0,5.17,1.04,7.042,2.912c1.887,1.873,2.928,4.368,2.928,7.042v3.744H48.619
		V42.127z M38.814,48.842h6.834v5.928c0,0.817,0.668,1.486,1.485,1.486s1.486-0.669,1.486-1.486v-5.928h19.908v5.928
		c0,0.817,0.668,1.486,1.485,1.486s1.485-0.669,1.485-1.486v-5.928h6.092v6.656c-0.298-0.016-0.446-0.03-0.669-0.03
		c-5.2,0-9.435,4.234-9.435,9.435v2.064h-5.377c-0.817,0-1.456,0.729-1.456,1.545v19.997H43.687c-2.719,0-4.873-2.184-4.873-4.903
		V48.842z"/>
</g>
<g id="Layer_2" display="none">
	<g display="inline">
		<g>
			<linearGradient id="SVGID_2_" gradientUnits="userSpaceOnUse" x1="41.5439" y1="70.0889" x2="86.5938" y2="70.0889">
				<stop  offset="0" style="stop-color:#89C540"/>
				<stop  offset="1" style="stop-color:#41BB95"/>
			</linearGradient>
			<path fill="url(#SVGID_2_)" d="M41.544,66.963v12.449c0,0,11.938-4.973,22.523-4.973c10.587,0,22.526,4.973,22.526,4.973V66.789
				c0,0-11.392-6.023-22.704-6.023C52.583,60.761,41.544,66.963,41.544,66.963z"/>
			<linearGradient id="SVGID_3_" gradientUnits="userSpaceOnUse" x1="24.2822" y1="64" x2="103.7178" y2="64">
				<stop  offset="0" style="stop-color:#89C540"/>
				<stop  offset="1" style="stop-color:#41BB95"/>
			</linearGradient>
			<path fill="url(#SVGID_3_)" d="M99.237,63.999l4.48-2.408l-4.48-2.482v-1.176c0,0,1.26-6.395-5.907-3.051
				c-0.364,0.195-0.558,0.399-0.64,0.594L63.126,39.081L24.282,61.314l14.67,6.663v-2.162c0,0,12.308-6.911,24.922-6.911
				c12.613,0,25.309,6.717,25.309,6.717v3.777l8.1-4.35c0,5.037,0,15.813,0,17.609h-2.697v6.262l3.59-2.479l3.977,2.479v-6.264
				h-2.914V63.999L99.237,63.999z M97.282,56.845c0,0.15,0,0.567,0,1.178l-2.361-1.312C95.778,56.142,97.282,55.348,97.282,56.845z
				 M96.481,63.753c-1.043,0-1.896-0.849-1.896-1.894s0.854-1.895,1.896-1.895c1.048,0,1.896,0.85,1.896,1.895
				S97.529,63.753,96.481,63.753z"/>
		</g>
	</g>
</g>
<g id="Layer_3" display="none">
	<linearGradient id="SVGID_4_" gradientUnits="userSpaceOnUse" x1="32.5098" y1="67.4688" x2="102.2168" y2="67.4688">
		<stop  offset="0" style="stop-color:#41BB95"/>
		<stop  offset="1" style="stop-color:#12A0C0"/>
	</linearGradient>
	<path display="inline" fill="none" stroke="url(#SVGID_4_)" stroke-width="2" stroke-miterlimit="10" d="M98.979,73.461h-1.047
		V67.8v-3.76c0-1.491-0.742-2.813-1.875-3.614l0,0v-1.283c0-1.861-1.515-3.375-3.375-3.375H91.9l2.989-4.383
		c1.001-1.47,0.62-3.481-0.849-4.482L73.765,33.084c-0.712-0.485-1.57-0.665-2.417-0.504c-0.847,0.161-1.58,0.642-2.065,1.354
		L51.781,59.614h-4.87l1.175-11.895c0.013-0.135,0.1-0.25,0.222-0.296c1.514-0.57,2.826-1.637,3.694-3.002
		c0.068-0.105,0.197-0.168,0.331-0.156l7.638,0.756c0.548,0.053,1.035-0.346,1.089-0.894c0.053-0.546-0.346-1.035-0.894-1.089
		l-7.639-0.754c-0.887-0.086-1.732,0.322-2.207,1.068c-0.638,1.003-1.604,1.789-2.715,2.207c-0.838,0.315-1.414,1.069-1.502,1.964
		l-1.194,12.09h-1.27l1.857-18.813c0.068-0.677,0.671-1.174,1.35-1.106l15.435,1.524c0.548,0.053,1.036-0.345,1.089-0.894
		c0.055-0.546-0.345-1.034-0.893-1.088l-15.436-1.525c-1.771-0.175-3.353,1.123-3.527,2.892l-1.498,15.162h-2.55
		c-1.861,0-3.375,1.515-3.375,3.375v0.876c-1.522,0.7-2.582,2.239-2.582,4.021v3.76v26.43v3.761c0,2.44,1.986,4.425,4.427,4.425
		h55.569c2.441,0,4.426-1.984,4.426-4.425v-3.761v-5.662h1.047c1.235,0,2.238-1.003,2.238-2.237V75.7
		C101.217,74.466,100.214,73.461,98.979,73.461z M92.682,57.76c0.762,0,1.383,0.621,1.383,1.382v0.507
		c-0.183-0.023-0.368-0.036-0.559-0.036h-4.227l1.265-1.854H92.682L92.682,57.76z M70.928,35.055
		c0.187-0.272,0.466-0.456,0.789-0.517c0.078-0.015,0.156-0.022,0.232-0.022c0.246,0,0.486,0.072,0.692,0.214l20.277,13.816
		c0.562,0.384,0.707,1.154,0.324,1.715l-6.374,9.353h-1.528l3.126-4.586c0.506-0.742,0.546-1.69,0.106-2.47
		c-0.584-1.035-0.821-2.255-0.667-3.435c0.114-0.877-0.271-1.733-1.008-2.236l-10.511-7.163c-0.736-0.5-1.674-0.546-2.448-0.12
		c-1.042,0.575-2.264,0.8-3.441,0.637c-0.874-0.124-1.759,0.271-2.26,1.003L55.721,59.614h-1.529L70.928,35.055z M71.365,51.966
		c-4.336,0-7.896,3.381-8.187,7.647H58.13l11.753-17.248l0,0c0.067-0.099,0.179-0.157,0.292-0.157c0.014,0,0.031,0.003,0.045,0.003
		c1.603,0.225,3.266-0.082,4.681-0.863c0.111-0.061,0.256-0.053,0.364,0.022l10.512,7.164c0.111,0.073,0.171,0.204,0.154,0.329
		c-0.21,1.605,0.112,3.265,0.907,4.672c0.064,0.114,0.057,0.258-0.02,0.37l-3.889,5.708h-3.377
		C79.265,55.348,75.704,51.966,71.365,51.966z M77.557,59.614H65.176c0.285-3.166,2.952-5.655,6.189-5.655
		C74.605,53.959,77.272,56.448,77.557,59.614z M38.084,59.143c0-0.763,0.62-1.382,1.383-1.382h2.354l0,0l-0.183,1.854h-3.554V59.143
		z M35.501,64.04c0-1.342,1.093-2.435,2.436-2.435h55.569c1.344,0,2.436,1.092,2.436,2.435v2.765h-60.44V64.04z M95.941,93.234
		H47.25c-0.55,0-0.996,0.446-0.996,0.995c0,0.551,0.445,0.996,0.996,0.996h48.692v2.765c0,1.343-1.092,2.435-2.436,2.435H37.937
		c-1.343,0-2.436-1.092-2.436-2.435v-2.765h5.371c0.55,0,0.996-0.445,0.996-0.996c0-0.549-0.446-0.995-0.996-0.995h-5.371V68.796
		h60.44v4.665h-9.471l0,0c-2.982,0-5.566,1.739-6.795,4.257c-0.004,0.009-0.008,0.017-0.012,0.025
		c-0.01,0.021-0.019,0.043-0.029,0.065c-0.147,0.31-0.275,0.631-0.377,0.962c0,0.002,0,0.002,0,0.004
		c-0.221,0.709-0.341,1.46-0.341,2.241l0,0l0,0c0,4.164,3.389,7.552,7.554,7.552l0,0h9.471V93.234L95.941,93.234L95.941,93.234z
		 M99.227,86.33c0,0.135-0.11,0.246-0.248,0.246h-2.043H86.471c-2.108,0-3.945-1.179-4.888-2.911
		c-0.043-0.079-0.086-0.16-0.125-0.241c-0.078-0.162-0.147-0.329-0.209-0.5c-0.221-0.595-0.339-1.238-0.339-1.908
		c0-0.671,0.118-1.314,0.339-1.91c0.062-0.172,0.131-0.338,0.209-0.501c0.039-0.079,0.082-0.159,0.125-0.239
		c0.942-1.732,2.779-2.911,4.888-2.911h10.465h2.043c0.138,0,0.248,0.109,0.248,0.246V86.33z"/>
</g>
<g id="Layer_4">
	<g>
		<g>
			<g>
				<linearGradient id="SVGID_5_" gradientUnits="userSpaceOnUse" x1="31.8887" y1="84.7432" x2="78.499" y2="84.7432">
					<stop  offset="0" style="stop-color:#12A0C0"/>
					<stop  offset="1" style="stop-color:#515AA8"/>
				</linearGradient>
				<path fill="url(#SVGID_5_)" d="M74.224,89.313h-5.377c-0.764,0-1.384,0.62-1.384,1.386s0.62,1.385,1.384,1.385h5.377
					c0.829,0,1.504,0.676,1.504,1.504c0,0.831-0.675,1.506-1.504,1.506H59.752c-2.175,0-4.221-0.96-5.612-2.633l-3.46-4.158
					c-1.858-2.232-4.561-3.539-7.452-3.622v-8.185h5.102c2.515,0,4.897,0.962,6.707,2.709l7.469,7.211
					c0.528,0.509,0.552,1.362,0.055,1.901c-0.508,0.55-1.368,0.586-1.92,0.08l-5.865-5.375c-0.563-0.518-1.439-0.479-1.957,0.084
					c-0.517,0.565-0.479,1.442,0.084,1.959l5.865,5.375c0.789,0.725,1.792,1.083,2.789,1.083c1.115,0,2.226-0.447,3.039-1.326
					c1.511-1.638,1.436-4.228-0.167-5.776l-7.469-7.209c-2.329-2.248-5.394-3.486-8.631-3.486h-5.371
					c-0.521-1.233-1.744-2.102-3.165-2.102h-6.522c-0.764,0-1.384,0.62-1.384,1.386v10.13c0,0.766,0.62,1.386,1.384,1.386
					c0.767,0,1.387-0.62,1.387-1.386v-8.744h5.135c0.366,0,0.664,0.297,0.664,0.662V86.16c0,0.366-0.298,0.664-0.664,0.664h-1.438
					c-0.765,0-1.385,0.62-1.385,1.386s0.62,1.386,1.385,1.386h1.438c1.441,0,2.675-0.893,3.185-2.152
					c2.159,0.013,4.188,0.969,5.57,2.63l3.46,4.16c1.92,2.307,4.741,3.63,7.742,3.63h14.472c2.356,0,4.275-1.918,4.275-4.276
					C78.499,91.23,76.58,89.313,74.224,89.313z"/>
			</g>
		</g>
		<g>
			<g>
				<linearGradient id="SVGID_6_" gradientUnits="userSpaceOnUse" x1="56.2158" y1="51.0088" x2="102.8271" y2="51.0088">
					<stop  offset="0" style="stop-color:#12A0C0"/>
					<stop  offset="1" style="stop-color:#515AA8"/>
				</linearGradient>
				<path fill="url(#SVGID_6_)" d="M101.441,50.686c-0.764,0-1.384,0.619-1.384,1.385v9.287H94.92c-0.366,0-0.664-0.298-0.664-0.663
					V49.59c0-0.365,0.298-0.663,0.664-0.663h1.339c0.764,0,1.384-0.62,1.384-1.386c0-0.765-0.62-1.385-1.384-1.385H94.92
					c-1.439,0-2.675,0.892-3.183,2.152c-2.16-0.013-4.19-0.969-5.572-2.63l-3.46-4.16c-1.92-2.307-4.741-3.629-7.742-3.629H60.492
					c-2.357,0-4.276,1.917-4.276,4.274s1.919,4.275,4.276,4.275h5.918c0.764,0,1.384-0.621,1.384-1.385
					c0-0.766-0.62-1.386-1.384-1.386h-5.918c-0.831,0-1.504-0.675-1.504-1.504s0.674-1.505,1.504-1.505h14.471
					c2.176,0,4.221,0.959,5.611,2.632l3.461,4.159c1.857,2.233,4.56,3.54,7.452,3.623v8.184h-5.102
					c-2.515,0-4.897-0.962-6.708-2.709l-7.468-7.209c-0.527-0.509-0.553-1.363-0.057-1.903c0.509-0.549,1.37-0.584,1.921-0.08
					l5.864,5.376c0.565,0.516,1.439,0.478,1.959-0.086c0.515-0.564,0.478-1.44-0.087-1.958l-5.864-5.375
					c-1.674-1.533-4.287-1.424-5.827,0.244c-1.513,1.638-1.437,4.228,0.165,5.775l7.47,7.21c2.329,2.248,5.395,3.486,8.632,3.486
					h5.369c0.522,1.233,1.744,2.102,3.165,2.102h6.521c0.767,0,1.386-0.62,1.386-1.386V52.071
					C102.827,51.305,102.208,50.686,101.441,50.686z"/>
			</g>
		</g>
		<g>
			<g>
				<linearGradient id="SVGID_7_" gradientUnits="userSpaceOnUse" x1="73.9551" y1="85.5801" x2="76.7412" y2="85.5801">
					<stop  offset="0" style="stop-color:#12A0C0"/>
					<stop  offset="1" style="stop-color:#515AA8"/>
				</linearGradient>
				<path fill="url(#SVGID_7_)" d="M76.618,85.008c-0.315-0.698-1.133-1.01-1.831-0.693c-0.7,0.305-1.022,1.121-0.716,1.822
					c0.227,0.521,0.735,0.833,1.27,0.833c0.186,0,0.373-0.038,0.554-0.116c0.005-0.002,0.023-0.011,0.029-0.014
					C76.62,86.526,76.934,85.704,76.618,85.008z"/>
			</g>
		</g>
		<g>
			<g>
				<linearGradient id="SVGID_8_" gradientUnits="userSpaceOnUse" x1="77.5557" y1="83.5" x2="80.334" y2="83.5">
					<stop  offset="0" style="stop-color:#12A0C0"/>
					<stop  offset="1" style="stop-color:#515AA8"/>
				</linearGradient>
				<path fill="url(#SVGID_8_)" d="M80.062,82.676c-0.452-0.616-1.322-0.744-1.938-0.293c-0.617,0.45-0.752,1.318-0.299,1.936
					c0.27,0.371,0.69,0.567,1.119,0.567c0.282,0,0.569-0.088,0.816-0.269c0.003-0.001,0.015-0.011,0.019-0.012
					C80.391,84.15,80.515,83.29,80.062,82.676z"/>
			</g>
		</g>
		<g>
			<g>
				<linearGradient id="SVGID_9_" gradientUnits="userSpaceOnUse" x1="69.9922" y1="86.8496" x2="72.7754" y2="86.8496">
					<stop  offset="0" style="stop-color:#12A0C0"/>
					<stop  offset="1" style="stop-color:#515AA8"/>
				</linearGradient>
				<path fill="url(#SVGID_9_)" d="M72.745,86.563c-0.156-0.746-0.89-1.224-1.638-1.07c-0.745,0.149-1.233,0.871-1.09,1.619
					c0.127,0.665,0.707,1.125,1.36,1.125c0.085,0,0.172-0.007,0.261-0.024c0.009-0.001,0.031-0.006,0.041-0.008
					C72.428,88.045,72.904,87.311,72.745,86.563z"/>
			</g>
		</g>
		<g>
			<g>
				<linearGradient id="SVGID_10_" gradientUnits="userSpaceOnUse" x1="80.6348" y1="80.6953" x2="83.415" y2="80.6953">
					<stop  offset="0" style="stop-color:#12A0C0"/>
					<stop  offset="1" style="stop-color:#515AA8"/>
				</linearGradient>
				<path fill="url(#SVGID_10_)" d="M82.957,79.662c-0.569-0.514-1.444-0.468-1.957,0.101c-0.007,0.007-0.022,0.025-0.029,0.033
					c-0.5,0.579-0.435,1.454,0.144,1.953c0.261,0.227,0.584,0.336,0.904,0.336c0.385,0,0.767-0.157,1.041-0.469
					C83.57,81.048,83.524,80.172,82.957,79.662z M82.182,80.829l-0.154-0.14l0.169,0.151L82.182,80.829z"/>
			</g>
		</g>
		<g>
			<g>
				<linearGradient id="SVGID_11_" gradientUnits="userSpaceOnUse" x1="84.6914" y1="73.4844" x2="87.4668" y2="73.4844">
					<stop  offset="0" style="stop-color:#12A0C0"/>
					<stop  offset="1" style="stop-color:#515AA8"/>
				</linearGradient>
				<path fill="url(#SVGID_11_)" d="M86.483,72.154c-0.732-0.223-1.509,0.195-1.73,0.927c-0.225,0.731,0.186,1.507,0.918,1.731
					c0.135,0.043,0.272,0.063,0.407,0.063c0.593,0,1.142-0.384,1.322-0.979l0.007-0.02C87.629,73.145,87.215,72.376,86.483,72.154z"
					/>
			</g>
		</g>
		<g>
			<g>
				<linearGradient id="SVGID_12_" gradientUnits="userSpaceOnUse" x1="85.5049" y1="65.2412" x2="88.2793" y2="65.2412">
					<stop  offset="0" style="stop-color:#12A0C0"/>
					<stop  offset="1" style="stop-color:#515AA8"/>
				</linearGradient>
				<path fill="url(#SVGID_12_)" d="M88.257,65.003c-0.003-0.017-0.006-0.034-0.01-0.053c-0.157-0.749-0.89-1.228-1.639-1.072
					c-0.747,0.157-1.227,0.885-1.075,1.631c0.126,0.66,0.706,1.124,1.359,1.124c0.08,0,0.162-0.007,0.245-0.022
					C87.891,66.477,88.392,65.757,88.257,65.003z"/>
			</g>
		</g>
		<g>
			<g>
				<linearGradient id="SVGID_13_" gradientUnits="userSpaceOnUse" x1="85.4775" y1="69.3965" x2="88.25" y2="69.3965">
					<stop  offset="0" style="stop-color:#12A0C0"/>
					<stop  offset="1" style="stop-color:#515AA8"/>
				</linearGradient>
				<path fill="url(#SVGID_13_)" d="M86.986,68.009c-0.76-0.066-1.435,0.495-1.501,1.259c-0.002,0.014-0.004,0.04-0.005,0.054
					c-0.046,0.764,0.538,1.42,1.303,1.464c0.027,0.003,0.055,0.004,0.082,0.004c0.721,0,1.327-0.559,1.38-1.285
					C88.309,68.745,87.746,68.076,86.986,68.009z"/>
			</g>
		</g>
		<g>
			<g>
				<linearGradient id="SVGID_14_" gradientUnits="userSpaceOnUse" x1="83.0498" y1="77.3105" x2="85.8281" y2="77.3105">
					<stop  offset="0" style="stop-color:#12A0C0"/>
					<stop  offset="1" style="stop-color:#515AA8"/>
				</linearGradient>
				<path fill="url(#SVGID_14_)" d="M85.126,76.096c-0.666-0.377-1.511-0.144-1.888,0.521l-0.019,0.035
					c-0.366,0.673-0.119,1.52,0.554,1.884c0.211,0.115,0.439,0.17,0.661,0.17c0.49,0,0.964-0.259,1.213-0.721l-1.203-0.685
					l1.203,0.683C86.025,77.317,85.792,76.473,85.126,76.096z"/>
			</g>
		</g>
		<g>
			<g>
				<linearGradient id="SVGID_15_" gradientUnits="userSpaceOnUse" x1="57.3672" y1="50.3311" x2="60.146" y2="50.3311">
					<stop  offset="0" style="stop-color:#12A0C0"/>
					<stop  offset="1" style="stop-color:#515AA8"/>
				</linearGradient>
				<path fill="url(#SVGID_15_)" d="M60,49.711c-0.343-0.684-1.176-0.962-1.859-0.619l-0.013,0.005
					c-0.684,0.343-0.955,1.171-0.613,1.855c0.243,0.485,0.735,0.765,1.243,0.765c0.21,0,0.423-0.047,0.623-0.148
					C60.064,51.229,60.341,50.397,60,49.711z"/>
			</g>
		</g>
		<g>
			<g>
				<linearGradient id="SVGID_16_" gradientUnits="userSpaceOnUse" x1="61.2598" y1="48.8853" x2="64.0469" y2="48.8853">
					<stop  offset="0" style="stop-color:#12A0C0"/>
					<stop  offset="1" style="stop-color:#515AA8"/>
				</linearGradient>
				<path fill="url(#SVGID_16_)" d="M64.007,48.557c-0.179-0.744-0.927-1.202-1.673-1.021c-0.006,0.002-0.025,0.007-0.032,0.008
					c-0.742,0.191-1.19,0.947-0.999,1.688c0.161,0.626,0.722,1.042,1.338,1.042c0.113,0,0.23-0.014,0.346-0.044
					C63.73,50.049,64.188,49.299,64.007,48.557z"/>
			</g>
		</g>
		<g>
			<g>
				<linearGradient id="SVGID_17_" gradientUnits="userSpaceOnUse" x1="53.8628" y1="52.582" x2="56.6431" y2="52.582">
					<stop  offset="0" style="stop-color:#12A0C0"/>
					<stop  offset="1" style="stop-color:#515AA8"/>
				</linearGradient>
				<path fill="url(#SVGID_17_)" d="M56.337,51.709c-0.479-0.595-1.351-0.69-1.947-0.21l0.858,1.087l-0.863-1.083
					c-0.598,0.476-0.697,1.348-0.22,1.946c0.272,0.343,0.676,0.523,1.085,0.523c0.302,0,0.606-0.099,0.861-0.302l0.017-0.015
					C56.724,53.175,56.815,52.305,56.337,51.709z"/>
			</g>
		</g>
		<g>
			<g>
				<linearGradient id="SVGID_18_" gradientUnits="userSpaceOnUse" x1="47.1968" y1="62.9082" x2="49.9717" y2="62.9082">
					<stop  offset="0" style="stop-color:#12A0C0"/>
					<stop  offset="1" style="stop-color:#515AA8"/>
				</linearGradient>
				<path fill="url(#SVGID_18_)" d="M48.95,61.566c-0.739-0.201-1.499,0.233-1.7,0.973c-0.004,0.011-0.011,0.039-0.014,0.051
					c-0.181,0.744,0.276,1.491,1.018,1.672c0.11,0.026,0.221,0.039,0.329,0.039c0.621,0,1.187-0.422,1.344-1.05
					C50.117,62.517,49.683,61.766,48.95,61.566z"/>
			</g>
		</g>
		<g>
			<g>
				<linearGradient id="SVGID_19_" gradientUnits="userSpaceOnUse" x1="46.6021" y1="67.0264" x2="49.3726" y2="67.0264">
					<stop  offset="0" style="stop-color:#12A0C0"/>
					<stop  offset="1" style="stop-color:#515AA8"/>
				</linearGradient>
				<path fill="url(#SVGID_19_)" d="M48.067,65.637c-0.765-0.043-1.418,0.539-1.463,1.304c-0.001,0.017-0.001,0.035-0.001,0.053
					c-0.023,0.764,0.579,1.401,1.343,1.424c0.014,0,0.027,0.001,0.042,0.001c0.743,0,1.356-0.589,1.383-1.335
					C49.406,66.325,48.824,65.682,48.067,65.637z"/>
			</g>
		</g>
		<g>
			<g>
				<linearGradient id="SVGID_20_" gradientUnits="userSpaceOnUse" x1="48.6587" y1="59.0127" x2="51.436" y2="59.0127">
					<stop  offset="0" style="stop-color:#12A0C0"/>
					<stop  offset="1" style="stop-color:#515AA8"/>
				</linearGradient>
				<path fill="url(#SVGID_20_)" d="M50.694,57.781c-0.677-0.357-1.515-0.095-1.87,0.582l-0.022,0.045
					c-0.339,0.685-0.055,1.515,0.631,1.854c0.197,0.096,0.404,0.142,0.61,0.142c0.509,0,0.999-0.281,1.241-0.767
					C51.629,58.962,51.367,58.133,50.694,57.781z"/>
			</g>
		</g>
		<g>
			<g>
				<linearGradient id="SVGID_21_" gradientUnits="userSpaceOnUse" x1="50.917" y1="55.5176" x2="53.6963" y2="55.5176">
					<stop  offset="0" style="stop-color:#12A0C0"/>
					<stop  offset="1" style="stop-color:#515AA8"/>
				</linearGradient>
				<path fill="url(#SVGID_21_)" d="M53.196,54.447c-0.589-0.489-1.463-0.408-1.952,0.181c-0.005,0.009-0.021,0.027-0.027,0.035
					c-0.476,0.6-0.374,1.469,0.226,1.944c0.254,0.202,0.558,0.3,0.859,0.3c0.406,0,0.809-0.178,1.083-0.52
					C53.864,55.801,53.781,54.933,53.196,54.447z"/>
			</g>
		</g>
		<g>
			<g>
				<linearGradient id="SVGID_22_" gradientUnits="userSpaceOnUse" x1="46.8843" y1="71.1758" x2="49.6548" y2="71.1758">
					<stop  offset="0" style="stop-color:#12A0C0"/>
					<stop  offset="1" style="stop-color:#515AA8"/>
				</linearGradient>
				<path fill="url(#SVGID_22_)" d="M49.633,70.929c-0.136-0.754-0.854-1.255-1.609-1.12c-0.751,0.135-1.252,0.854-1.119,1.607
					l0.002,0.015c0.121,0.668,0.702,1.134,1.359,1.134c0.082,0,0.165-0.007,0.249-0.021C49.269,72.408,49.767,71.681,49.633,70.929z
					"/>
			</g>
		</g>
		<g>
			<g>
				<linearGradient id="SVGID_23_" gradientUnits="userSpaceOnUse" x1="56.3516" y1="69.3848" x2="78.5469" y2="69.3848">
					<stop  offset="0" style="stop-color:#12A0C0"/>
					<stop  offset="1" style="stop-color:#515AA8"/>
				</linearGradient>
				<path fill="url(#SVGID_23_)" d="M72.114,60.41c-1.803,0-3.474,0.745-4.663,2c-1.192-1.255-2.863-2-4.666-2
					c-3.547,0-6.434,2.887-6.434,6.435c0,1.913,0.845,3.716,2.317,4.943c0.008,0.007,0.019,0.014,0.028,0.021l7.895,6.251
					c0.252,0.198,0.556,0.298,0.858,0.298c0.307,0,0.611-0.1,0.864-0.302l8.229-6.555c0.041-0.032,0.077-0.066,0.114-0.104
					c1.22-1.215,1.89-2.833,1.89-4.554C78.547,63.297,75.661,60.41,72.114,60.41z M74.751,69.388l-7.305,5.816l-7.016-5.556
					c-0.833-0.698-1.309-1.72-1.309-2.804c0-2.02,1.643-3.663,3.664-3.663c1.487,0,2.814,0.888,3.385,2.263
					c0.215,0.518,0.72,0.855,1.281,0.855c0.559,0,1.064-0.338,1.279-0.855c0.569-1.375,1.896-2.263,3.384-2.263
					c2.021,0,3.664,1.643,3.664,3.663C75.778,67.802,75.413,68.701,74.751,69.388z"/>
			</g>
		</g>
		<g>
			<g>
				<linearGradient id="SVGID_24_" gradientUnits="userSpaceOnUse" x1="31.8931" y1="88.21" x2="34.6543" y2="88.21">
					<stop  offset="0" style="stop-color:#12A0C0"/>
					<stop  offset="1" style="stop-color:#515AA8"/>
				</linearGradient>
				<circle fill="url(#SVGID_24_)" cx="33.273" cy="88.21" r="1.381"/>
			</g>
		</g>
		<g>
			<g>
				<linearGradient id="SVGID_25_" gradientUnits="userSpaceOnUse" x1="100.0615" y1="47.542" x2="102.8213" y2="47.542">
					<stop  offset="0" style="stop-color:#12A0C0"/>
					<stop  offset="1" style="stop-color:#515AA8"/>
				</linearGradient>
				<circle fill="url(#SVGID_25_)" cx="101.441" cy="47.542" r="1.381"/>
			</g>
		</g>
	</g>
</g>
</svg>
