<?xml version="1.0" encoding="utf-8"?>
<!-- Generator: Adobe Illustrator 16.0.0, SVG Export Plug-In . SVG Version: 6.00 Build 0)  -->
<!DOCTYPE svg PUBLIC "-//W3C//DTD SVG 1.1//EN" "http://www.w3.org/Graphics/SVG/1.1/DTD/svg11.dtd">
<svg version="1.1" id="Layer_1" xmlns="http://www.w3.org/2000/svg" xmlns:xlink="http://www.w3.org/1999/xlink" x="0px" y="0px"
	 width="128px" height="128px" viewBox="0 0 128 128" enable-background="new 0 0 128 128" xml:space="preserve">
<linearGradient id="SVGID_1_" gradientUnits="userSpaceOnUse" x1="34.8428" y1="64.4189" x2="93.5938" y2="64.4189">
	<stop  offset="0" style="stop-color:#89C540"/>
	<stop  offset="1" style="stop-color:#41BB95"/>
</linearGradient>
<path fill="none" stroke="url(#SVGID_1_)" stroke-width="2" stroke-miterlimit="10" d="M43.687,91.48h16.966v2.258
	c0,3.283,2.645,5.913,5.914,5.913h20.13c3.284,0,5.897-2.63,5.897-5.913V68.512c0-0.816-0.608-1.545-1.426-1.545h-4.813v-2.064
	c0-2.526-0.98-4.903-2.763-6.671c-0.862-0.862-1.843-1.561-3.031-2.036v-8.898c0-0.817-0.668-1.426-1.485-1.426h-7.577v-3.744
	c0-3.462-1.352-6.701-3.788-9.152c-2.437-2.436-5.675-3.789-9.137-3.789c-7.131,0-12.925,5.794-12.925,12.926v3.759h-8.379
	c-0.817,0-1.426,0.608-1.426,1.426v36.309C35.843,87.959,39.334,91.48,43.687,91.48z M80.561,59.568
	c0.297,0.223,0.639,0.476,0.922,0.758c1.218,1.219,1.9,2.838,1.9,4.576v2.064h-2.822V59.568z M83.383,69.938v3.773
	c0,0.818,0.669,1.486,1.486,1.486s1.485-0.668,1.485-1.486v-3.773h3.269v23.801c0,1.635-1.277,2.941-2.927,2.941h-20.13
	c-1.635,0-2.942-1.292-2.942-2.941V69.938h3.862v3.773c0,0.818,0.669,1.486,1.486,1.486s1.485-0.668,1.485-1.486v-3.773H83.383z
	 M70.458,66.967v-2.064c0-3.566,2.897-6.463,6.463-6.463c0.223,0,0.371,0.015,0.669,0.045v8.482H70.458L70.458,66.967z
	 M48.619,42.127c0-5.482,4.457-9.954,9.939-9.954c2.66,0,5.17,1.04,7.042,2.912c1.887,1.873,2.928,4.368,2.928,7.042v3.744H48.619
	V42.127z M38.814,48.842h6.834v5.928c0,0.817,0.668,1.486,1.485,1.486s1.486-0.669,1.486-1.486v-5.928h19.908v5.928
	c0,0.817,0.668,1.486,1.485,1.486s1.485-0.669,1.485-1.486v-5.928h6.092v6.656c-0.298-0.016-0.446-0.03-0.669-0.03
	c-5.2,0-9.435,4.234-9.435,9.435v2.064h-5.377c-0.817,0-1.456,0.729-1.456,1.545v19.997H43.687c-2.719,0-4.873-2.184-4.873-4.903
	V48.842z"/>
</svg>
